<?xml version="1.0" encoding="UTF-8"?>
<svg width="81px" height="80px" viewBox="0 0 81 80" version="1.1" xmlns="http://www.w3.org/2000/svg" xmlns:xlink="http://www.w3.org/1999/xlink">
    <title>logo@2x</title>
    <g id="登录" stroke="none" stroke-width="1" fill="none" fill-rule="evenodd">
        <g id="登录-1" transform="translate(-147, -143)">
            <g id="logo" transform="translate(147.5, 143)">
                <rect id="矩形" fill="#FE7B18" x="0" y="0" width="80" height="80" rx="16"></rect>
                <g id="资源-22" transform="translate(10, 11.87)" fill="#FFFFFF">
                    <path d="M29.9855761,0.064441787 C29.9855761,1.82022579 31.4089203,3.24356995 33.1647043,3.24356995 L41.7569426,3.24356995 C43.275471,3.10962448 44.4887914,1.9232667 44.6568333,0.408131318 C44.6633603,4.38632809 41.5613718,7.67688738 37.589707,7.90485921 L22.0162751,7.90485921 C18.048167,7.6764703 14.9526511,4.38276588 14.9705618,0.408131318 C15.1459552,2.02030062 16.5066143,3.24211702 18.1282873,3.24356995 L26.7205256,3.24356995 C27.5784697,3.26676616 28.4093442,2.94209168 29.024261,2.34335685 C29.6391779,1.74462201 29.9858897,0.922699349 29.9855761,0.064441787 Z M44.8501483,0.064441787 L44.8501483,0.064441787 C44.8501483,0.214805957 44.8501483,0.343689531 44.8501483,0.472573105 C44.8501483,0.601456679 44.8501483,0.193325361 44.8501483,0.064441787 Z M27.6656718,8.82852482 L32.3054805,8.82852482 L32.3054805,13.4683335 L27.6656718,13.4683335 Z M15.593577,13.9409066 C15.593577,13.9409066 15.5819295,14.0997371 15.5587174,14.3910497 L44.4124348,14.3910497 C44.3892228,14.0997371 44.3775752,13.9409066 44.3775752,13.9409066 L48.9529421,13.9409066 C48.9570204,14.0911725 48.961549,14.2414167 48.9665279,14.3916371 L49.0388645,14.3919991 L49.0382496,16.0213448 C49.2306981,19.5277591 49.66863,23.017239 50.3491808,26.4640939 C50.8584875,29.3738665 51.5884294,32.2390572 52.5319865,35.0350043 C53.6292639,35.2916359 54.6791319,35.7402085 55.6334074,36.3666485 C57.9393625,38.0991122 59.4370721,40.6987636 59.7791623,43.562648 C60.5327826,46.8916945 59.3241377,50.359255 56.664476,52.4985758 C53.9216337,54.6166133 50.4008402,55.4537797 46.9982079,54.7969996 L46.8908049,54.7969996 C44.7471981,56.3010213 42.2238401,57.1719147 39.608883,57.310278 C38.8836531,57.3127329 38.1613078,57.218828 37.4608234,57.0309815 C34.7543715,56.2522996 32.5635667,54.2599373 31.532179,51.639352 L31.532179,51.3386237 C30.4151881,46.4625284 31.7899462,41.8012392 36.9882503,39.6531796 C40.5650204,37.7534484 44.9863641,38.6539257 47.5352228,41.8012392 C48.7073442,43.3440782 48.9997472,45.3827771 48.3085243,47.1928687 C47.6947082,48.8555234 46.2791542,50.093122 44.54942,50.4793998 C43.2651868,50.6672279 41.9710146,50.2090427 41.0910441,49.2550059 C40.5185199,48.6152535 40.1912588,47.7932954 40.1673785,46.9351016 C40.1484932,46.064706 40.5891721,45.2486339 41.3273307,44.787042 C41.3811803,44.7433757 41.4559948,44.7363447 41.5170371,44.7692136 C41.5780794,44.8020826 41.6133918,44.8684126 41.6065784,44.9374062 C41.33868,45.3867087 41.2871474,45.9327007 41.4662504,46.4241928 C41.6453535,46.9156848 42.0360834,47.3005134 42.530244,47.4721164 C42.9813365,47.708403 43.9050021,47.9446895 44.3775752,47.4721164 C44.6478937,47.2363576 44.8171132,46.9056104 44.8501483,46.5484508 C44.9692637,45.7652252 44.8257553,44.9645992 44.442017,44.2715077 C43.0927483,42.5421175 40.6573548,42.1068951 38.7926204,43.2619197 C36.1782268,44.4910187 34.7414536,47.3468271 35.3127639,50.1786715 L35.4157011,50.4120959 C36.0295032,51.7170771 37.1565162,52.7154305 38.5348532,53.1644743 C40.8495683,53.3531075 43.1503982,52.6628585 44.9790319,51.2312207 C45.8767328,50.6290762 47.0212502,50.5316705 48.0077959,50.9734535 C50.1989338,51.2813758 52.4229092,50.7099377 54.1942075,49.3838895 C55.7261147,48.1595675 56.3844686,46.1423038 55.8696939,44.2500271 C55.697255,42.4421071 54.807519,40.7786875 53.3994254,39.631699 C52.0515055,38.8025587 50.4356183,38.5255495 48.8885003,38.8583976 C47.8446384,39.0450012 46.802977,38.5197938 46.3323095,37.5695618 C46.0101005,36.925144 44.7427454,34.7770844 40.4466262,34.7770844 L40.0573823,34.7952481 C37.985518,34.9266394 35.9836454,35.6089206 34.2602147,36.7747798 C32.7350924,38.1495379 32.0691939,38.7939558 31.7899462,39.0732035 C31.1367074,39.7561342 30.520068,40.4731567 29.9426149,41.2212631 C29.3651619,40.4731567 28.7485225,39.7561342 28.0952837,39.0732035 C27.7730748,38.7939558 27.1501375,38.1495379 25.6250152,36.7747798 C23.79387,35.5360544 21.6483902,34.8432432 19.4386037,34.7770844 L19.1203465,34.7828283 C15.159686,34.9066459 13.8668676,36.9416675 13.5529204,37.5695618 C13.0822529,38.5197938 12.0405915,39.0450012 10.9967296,38.8583976 C9.44961165,38.5255495 7.83372438,38.8025587 6.48580447,39.631699 C5.11178879,40.7798132 4.24706907,42.4243248 4.07997776,44.2070659 C3.56520311,46.0993426 4.22355696,48.1166063 5.75546422,49.3409283 C7.5267625,50.6669765 9.75073784,51.2384146 11.9418758,50.9304923 C12.9393433,50.5075151 14.084485,50.6293387 14.9706398,51.2527013 C16.7992735,52.6843391 19.1001034,53.3745881 21.4148185,53.1859549 C22.8630076,52.6802622 24.0169806,51.5655399 24.572466,50.1357103 L24.6173932,49.887381 C25.055441,47.1559271 23.6479896,44.4450491 21.1355707,43.2404391 C19.2708363,42.0854145 16.8354427,42.5206369 15.4861741,44.2500271 C15.1024358,44.9431186 14.9589274,45.7437446 15.0780427,46.5269702 C15.1110779,46.8841298 15.2802974,47.214877 15.5506158,47.4506358 C16.023189,47.923209 16.9468546,47.6869224 17.3979471,47.4506358 C17.8921077,47.2790328 18.2828376,46.8942042 18.4619407,46.4027122 C18.6410437,45.9112201 18.5895111,45.3652281 18.3216127,44.9159256 C18.3305733,44.8642755 18.3626194,44.8195402 18.4086401,44.794438 C18.4546608,44.7693358 18.5096224,44.7666124 18.5578992,44.787042 C19.2960578,45.2486339 19.7367367,46.064706 19.7178514,46.9351016 C19.7340879,47.7945225 19.4448386,48.6318232 18.9015888,49.2979671 C18.0216183,50.2520039 16.7274461,50.7101891 15.4432129,50.522361 C13.7134787,50.1360832 12.2979247,48.8984846 11.6841086,47.2358299 C10.9251282,45.465684 11.1278991,43.4298638 12.2211235,41.8442004 C14.7699822,38.6968869 19.1913259,37.7964096 22.768096,39.6961408 C27.9664001,41.865681 29.3411583,46.5054896 28.2241673,51.3815849 L28.2241673,51.6823132 C27.2088521,54.2571317 25.0728376,56.2270117 22.4244065,57.0309815 C21.7239221,57.218828 21.0015768,57.3127329 20.2763469,57.310278 C17.6666481,57.161604 15.151076,56.2833866 13.0159056,54.775519 L12.6635244,54.8381413 C9.371385,55.3730405 5.99789902,54.5220969 3.3496375,52.4770952 C0.690017351,50.3466675 -0.526400519,46.8890414 0.213470534,43.562648 C0.555560776,40.6987636 2.05327038,38.0991122 4.3592255,36.3666485 C5.29603405,35.7516747 6.32496773,35.3081167 7.39850163,35.0476929 C8.3318621,32.2491992 9.04651241,29.3786375 9.53604906,26.4640939 C10.35108,22.336124 10.8181329,18.1470187 10.9322878,13.9409066 L15.593577,13.9409066 Z M44.8414577,19.0308231 L15.1296945,19.0308231 C14.9016738,21.2250296 14.5903368,23.8776152 14.1973383,26.4640939 C13.8317022,28.6452501 13.3396166,30.8017326 12.7240974,32.9227359 C14.6768847,31.4604113 17.1171739,30.7263757 19.6104484,30.9105772 L20.0544357,30.9536871 C23.3036457,31.309331 26.4005889,32.5321866 29.0189493,34.4978367 C29.3452594,34.7405705 29.6539239,35.0061655 29.9426149,35.2926187 C30.231306,35.0061655 30.5399705,34.7405705 30.8662806,34.4978367 C33.6036574,32.4428388 36.8641132,31.199697 40.2747815,30.9105772 L40.3821844,30.9105772 C42.8637535,30.7272405 45.2928336,31.4535393 47.2432508,32.9007541 C46.6284479,30.7881951 46.1383025,28.6384041 45.773814,26.4640939 C45.3808154,23.8776152 45.0694785,21.2250296 44.8414577,19.0308231 Z M32.2625193,19.976954 L32.2625193,31.5764756 L27.6227106,31.5764756 L27.6227106,19.976954 L32.2625193,19.976954 Z" id="形状结合"></path>
                </g>
            </g>
        </g>
    </g>
</svg>